TITLE ""
FILE "1Q_t_1510-1519.mp3" MP3
  TRACK 01 AUDIO
    TITLE "1Q_t_1510-1519_01"
    INDEX 01 00:00:00
  TRACK 02 AUDIO
    TITLE "1Q_t_1510-1519_02"
    INDEX 01 00:01:25
  TRACK 03 AUDIO
    TITLE "1Q_t_1510-1519_03"
    INDEX 01 00:01:37
  TRACK 04 AUDIO
    TITLE "1Q_t_1510-1519_04"
    INDEX 01 00:04:16
  TRACK 05 AUDIO
    TITLE "1Q_t_1510-1519_05"
    INDEX 01 00:04:22
  TRACK 06 AUDIO
    TITLE "1Q_t_1510-1519_06"
    INDEX 01 00:09:13
  TRACK 07 AUDIO
    TITLE "1Q_t_1510-1519_07"
    INDEX 01 00:09:58
  TRACK 08 AUDIO
    TITLE "1Q_t_1510-1519_08"
    INDEX 01 00:10:58
  TRACK 09 AUDIO
    TITLE "1Q_t_1510-1519_09"
    INDEX 01 00:10:69
  TRACK 10 AUDIO
    TITLE "1Q_t_1510-1519_10"
    INDEX 01 00:13:25
  TRACK 11 AUDIO
    TITLE "1Q_t_1510-1519_11"
    INDEX 01 00:13:31
  TRACK 12 AUDIO
    TITLE "1Q_t_1510-1519_12"
    INDEX 01 00:17:64
  TRACK 13 AUDIO
    TITLE "1Q_t_1510-1519_13"
    INDEX 01 00:18:34
  TRACK 14 AUDIO
    TITLE "1Q_t_1510-1519_14"
    INDEX 01 00:19:47
  TRACK 15 AUDIO
    TITLE "1Q_t_1510-1519_15"
    INDEX 01 00:19:55
  TRACK 16 AUDIO
    TITLE "1Q_t_1510-1519_16"
    INDEX 01 00:22:08
  TRACK 17 AUDIO
    TITLE "1Q_t_1510-1519_17"
    INDEX 01 00:22:16
  TRACK 18 AUDIO
    TITLE "1Q_t_1510-1519_18"
    INDEX 01 00:27:25
  TRACK 19 AUDIO
    TITLE "1Q_t_1510-1519_19"
    INDEX 01 00:27:70
  TRACK 20 AUDIO
    TITLE "1Q_t_1510-1519_20"
    INDEX 01 00:29:08
  TRACK 21 AUDIO
    TITLE "1Q_t_1510-1519_21"
    INDEX 01 00:29:16
  TRACK 22 AUDIO
    TITLE "1Q_t_1510-1519_22"
    INDEX 01 00:32:10
  TRACK 23 AUDIO
    TITLE "1Q_t_1510-1519_23"
    INDEX 01 00:32:16
  TRACK 24 AUDIO
    TITLE "1Q_t_1510-1519_24"
    INDEX 01 00:38:17
  TRACK 25 AUDIO
    TITLE "1Q_t_1510-1519_25"
    INDEX 01 00:38:64
  TRACK 26 AUDIO
    TITLE "1Q_t_1510-1519_26"
    INDEX 01 00:40:06
  TRACK 27 AUDIO
    TITLE "1Q_t_1510-1519_27"
    INDEX 01 00:40:14
  TRACK 28 AUDIO
    TITLE "1Q_t_1510-1519_28"
    INDEX 01 00:43:61
  TRACK 29 AUDIO
    TITLE "1Q_t_1510-1519_29"
    INDEX 01 00:43:67
  TRACK 30 AUDIO
    TITLE "1Q_t_1510-1519_30"
    INDEX 01 00:48:13
  TRACK 31 AUDIO
    TITLE "1Q_t_1510-1519_31"
    INDEX 01 00:48:58
  TRACK 32 AUDIO
    TITLE "1Q_t_1510-1519_32"
    INDEX 01 00:49:71
  TRACK 33 AUDIO
    TITLE "1Q_t_1510-1519_33"
    INDEX 01 00:50:04
  TRACK 34 AUDIO
    TITLE "1Q_t_1510-1519_34"
    INDEX 01 00:51:31
  TRACK 35 AUDIO
    TITLE "1Q_t_1510-1519_35"
    INDEX 01 00:51:39
  TRACK 36 AUDIO
    TITLE "1Q_t_1510-1519_36"
    INDEX 01 00:56:13
  TRACK 37 AUDIO
    TITLE "1Q_t_1510-1519_37"
    INDEX 01 00:56:58
  TRACK 38 AUDIO
    TITLE "1Q_t_1510-1519_38"
    INDEX 01 00:58:02
  TRACK 39 AUDIO
    TITLE "1Q_t_1510-1519_39"
    INDEX 01 00:58:10
  TRACK 40 AUDIO
    TITLE "1Q_t_1510-1519_40"
    INDEX 01 00:59:48
  TRACK 41 AUDIO
    TITLE "1Q_t_1510-1519_41"
    INDEX 01 00:59:52
  TRACK 42 AUDIO
    TITLE "1Q_t_1510-1519_42"
    INDEX 01 01:03:34
  TRACK 43 AUDIO
    TITLE "1Q_t_1510-1519_43"
    INDEX 01 01:04:04
  TRACK 44 AUDIO
    TITLE "1Q_t_1510-1519_44"
    INDEX 01 01:05:35
  TRACK 45 AUDIO
    TITLE "1Q_t_1510-1519_45"
    INDEX 01 01:05:41
  TRACK 46 AUDIO
    TITLE "1Q_t_1510-1519_46"
    INDEX 01 01:10:31
  TRACK 47 AUDIO
    TITLE "1Q_t_1510-1519_47"
    INDEX 01 01:10:36
  TRACK 48 AUDIO
    TITLE "1Q_t_1510-1519_48"
    INDEX 01 01:14:58
  TRACK 49 AUDIO
    TITLE "1Q_t_1510-1519_49"
    INDEX 01 01:15:28
  TRACK 50 AUDIO
    TITLE "1Q_t_1510-1519_50"
    INDEX 01 01:16:33
  TRACK 51 AUDIO
    TITLE "1Q_t_1510-1519_51"
    INDEX 01 01:16:41
  TRACK 52 AUDIO
    TITLE "1Q_t_1510-1519_52"
    INDEX 01 01:18:61
  TRACK 53 AUDIO
    TITLE "1Q_t_1510-1519_53"
    INDEX 01 01:18:67
  TRACK 54 AUDIO
    TITLE "1Q_t_1510-1519_54"
    INDEX 01 01:23:06
  TRACK 55 AUDIO
    TITLE "1Q_t_1510-1519_55"
    INDEX 01 01:23:51
  TRACK 56 AUDIO
    TITLE "1Q_t_1510-1519_56"
    INDEX 01 01:24:54
  TRACK 57 AUDIO
    TITLE "1Q_t_1510-1519_57"
    INDEX 01 01:24:62
  TRACK 58 AUDIO
    TITLE "1Q_t_1510-1519_58"
    INDEX 01 01:26:18
  TRACK 59 AUDIO
    TITLE "1Q_t_1510-1519_59"
    INDEX 01 01:26:26
  TRACK 60 AUDIO
    TITLE "1Q_t_1510-1519_60"
    INDEX 01 01:30:31
